<?xml version="1.0" encoding="UTF-8" standalone="no"?><!DOCTYPE svg PUBLIC "-//W3C//DTD SVG 1.1//EN"
        "http://www.w3.org/Graphics/SVG/1.1/DTD/svg11.dtd"><!-- Generated by graphviz version 2.40.1 (20161225.0304)
 --><!-- Title: G1 Pages: 1 -->
<svg xmlns="http://www.w3.org/2000/svg" width="633pt" height="618pt" viewBox="0.00 0.00 633.21 618.20">
    <g id="graph0" class="graph" transform="scale(1 1) rotate(0) translate(4 614.2)">
        <title>G1</title>
        <polygon fill="#ffffff" stroke="transparent" points="-4,4 -4,-614.2 629.2094,-614.2 629.2094,4 -4,4"/>
        <!-- input -->
        <g id="node1" class="node">
            <title>input</title>
            <ellipse fill="none" stroke="#000000" cx="78.6033" cy="-592.2" rx="30.7789" ry="18"/>
            <text text-anchor="middle" x="78.6033" y="-588" font-family="Times,serif" font-size="14.00" fill="#000000">
                input
            </text>
        </g>
        <!-- Lexer -->
        <g id="node2" class="node">
            <title>Lexer</title>
            <ellipse fill="none" stroke="#000000" cx="78.6033" cy="-519.2" rx="33.6054" ry="18"/>
            <text text-anchor="middle" x="78.6033" y="-515" font-family="Times,serif" font-size="14.00" fill="#000000">
                Lexer
            </text>
        </g>
        <!-- input&#45;&gt;Lexer -->
        <g id="edge1" class="edge">
            <title>input-&gt;Lexer</title>
            <path fill="none" stroke="#000000"
                  d="M78.6033,-574.1551C78.6033,-566.0828 78.6033,-556.3764 78.6033,-547.3817"/>
            <polygon fill="#000000" stroke="#000000"
                     points="82.1034,-547.2903 78.6033,-537.2904 75.1034,-547.2904 82.1034,-547.2903"/>
        </g>
        <!-- Tokens -->
        <g id="node3" class="node">
            <title>Tokens</title>
            <ellipse fill="none" stroke="#000000" cx="78.6033" cy="-430.4" rx="39.4273" ry="18"/>
            <text text-anchor="middle" x="78.6033" y="-426.2" font-family="Times,serif" font-size="14.00"
                  fill="#000000">Tokens
            </text>
        </g>
        <!-- Lexer&#45;&gt;Tokens -->
        <g id="edge2" class="edge">
            <title>Lexer-&gt;Tokens</title>
            <path fill="none" stroke="#000000"
                  d="M78.6033,-500.8006C78.6033,-488.6949 78.6033,-472.6076 78.6033,-458.8674"/>
            <polygon fill="#000000" stroke="#000000"
                     points="82.1033,-458.472 78.6033,-448.472 75.1033,-458.4721 82.1033,-458.472"/>
            <text text-anchor="middle" x="115.5374" y="-470.6" font-family="Times,serif" font-size="14.00"
                  fill="#000000">Tokenization
            </text>
        </g>
        <!-- Parser -->
        <g id="node4" class="node">
            <title>Parser</title>
            <ellipse fill="none" stroke="#000000" cx="78.6033" cy="-357.4" rx="35.3276" ry="18"/>
            <text text-anchor="middle" x="78.6033" y="-353.2" font-family="Times,serif" font-size="14.00"
                  fill="#000000">Parser
            </text>
        </g>
        <!-- Tokens&#45;&gt;Parser -->
        <g id="edge3" class="edge">
            <title>Tokens-&gt;Parser</title>
            <path fill="none" stroke="#000000"
                  d="M78.6033,-412.3551C78.6033,-404.2828 78.6033,-394.5764 78.6033,-385.5817"/>
            <polygon fill="#000000" stroke="#000000"
                     points="82.1034,-385.4903 78.6033,-375.4904 75.1034,-385.4904 82.1034,-385.4903"/>
        </g>
        <!-- ParseTree -->
        <g id="node5" class="node">
            <title>ParseTree</title>
            <ellipse fill="none" stroke="#000000" cx="78.6033" cy="-268.6" rx="49.7729" ry="18"/>
            <text text-anchor="middle" x="78.6033" y="-264.4" font-family="Times,serif" font-size="14.00"
                  fill="#000000">ParseTree
            </text>
        </g>
        <!-- Parser&#45;&gt;ParseTree -->
        <g id="edge4" class="edge">
            <title>Parser-&gt;ParseTree</title>
            <path fill="none" stroke="#000000"
                  d="M78.6033,-339.0006C78.6033,-326.8949 78.6033,-310.8076 78.6033,-297.0674"/>
            <polygon fill="#000000" stroke="#000000"
                     points="82.1033,-296.672 78.6033,-286.672 75.1033,-296.6721 82.1033,-296.672"/>
            <text text-anchor="middle" x="99.5998" y="-308.8" font-family="Times,serif" font-size="14.00"
                  fill="#000000">Parsing
            </text>
        </g>
        <!-- ParseTreeToAST -->
        <g id="node6" class="node">
            <title>ParseTreeToAST</title>
            <ellipse fill="none" stroke="#000000" cx="78.6033" cy="-195.6" rx="78.7066" ry="18"/>
            <text text-anchor="middle" x="78.6033" y="-191.4" font-family="Times,serif" font-size="14.00"
                  fill="#000000">ParseTreeToAST
            </text>
        </g>
        <!-- ParseTree&#45;&gt;ParseTreeToAST -->
        <g id="edge5" class="edge">
            <title>ParseTree-&gt;ParseTreeToAST</title>
            <path fill="none" stroke="#000000"
                  d="M78.6033,-250.5551C78.6033,-242.4828 78.6033,-232.7764 78.6033,-223.7817"/>
            <polygon fill="#000000" stroke="#000000"
                     points="82.1034,-223.6903 78.6033,-213.6904 75.1034,-223.6904 82.1034,-223.6903"/>
        </g>
        <!-- AST -->
        <g id="node7" class="node">
            <title>AST</title>
            <ellipse fill="none" stroke="#000000" cx="129.6033" cy="-106.8" rx="29.0529" ry="18"/>
            <text text-anchor="middle" x="129.6033" y="-102.6" font-family="Times,serif" font-size="14.00"
                  fill="#000000">AST
            </text>
        </g>
        <!-- ParseTreeToAST&#45;&gt;AST -->
        <g id="edge6" class="edge">
            <title>ParseTreeToAST-&gt;AST</title>
            <path fill="none" stroke="#000000"
                  d="M81.0739,-177.5626C83.1085,-166.9048 86.7112,-153.4556 92.9525,-142.8 96.0135,-137.5739 100.0295,-132.5873 104.2783,-128.0808"/>
            <polygon fill="#000000" stroke="#000000"
                     points="106.8223,-130.4884 111.5213,-120.9926 101.9263,-125.4855 106.8223,-130.4884"/>
            <text text-anchor="middle" x="130.9287" y="-147" font-family="Times,serif" font-size="14.00" fill="#000000">
                parsing to ast
            </text>
        </g>
        <!-- StaticChecker -->
        <g id="node8" class="node">
            <title>StaticChecker</title>
            <ellipse fill="none" stroke="#000000" cx="240.6033" cy="-195.6" rx="65.4033" ry="18"/>
            <text text-anchor="middle" x="240.6033" y="-191.4" font-family="Times,serif" font-size="14.00"
                  fill="#000000">StaticChecker
            </text>
        </g>
        <!-- StaticChecker&#45;&gt;AST -->
        <g id="edge7" class="edge">
            <title>StaticChecker-&gt;AST</title>
            <path fill="none" stroke="#000000"
                  d="M219.2013,-178.4785C201.0105,-163.9258 174.8404,-142.9897 155.4768,-127.4988"/>
            <polygon fill="#000000" stroke="#000000"
                     points="157.6331,-124.7417 147.6379,-121.2278 153.2602,-130.2078 157.6331,-124.7417"/>
            <text text-anchor="middle" x="207.6615" y="-147" font-family="Times,serif" font-size="14.00" fill="#000000">
                visit
            </text>
        </g>
        <!-- ValidatedAST -->
        <g id="node9" class="node">
            <title>ValidatedAST</title>
            <ellipse fill="none" stroke="#000000" cx="264.6033" cy="-106.8" rx="66.6306" ry="18"/>
            <text text-anchor="middle" x="264.6033" y="-102.6" font-family="Times,serif" font-size="14.00"
                  fill="#000000">ValidatedAST
            </text>
        </g>
        <!-- StaticChecker&#45;&gt;ValidatedAST -->
        <g id="edge8" class="edge">
            <title>StaticChecker-&gt;ValidatedAST</title>
            <path fill="none" stroke="#000000"
                  d="M238.5084,-177.1353C237.9358,-166.8206 238.2213,-153.8571 241.5661,-142.8 242.5328,-139.604 243.8716,-136.4192 245.4216,-133.3404"/>
            <polygon fill="#000000" stroke="#000000"
                     points="248.5502,-134.9224 250.545,-124.5171 242.4967,-131.4074 248.5502,-134.9224"/>
            <text text-anchor="middle" x="286.1219" y="-147" font-family="Times,serif" font-size="14.00" fill="#000000">
                static validation
            </text>
        </g>
        <!-- Evaluator -->
        <g id="node10" class="node">
            <title>Evaluator</title>
            <ellipse fill="none" stroke="#000000" cx="391.6033" cy="-195.6" rx="48.654" ry="18"/>
            <text text-anchor="middle" x="391.6033" y="-191.4" font-family="Times,serif" font-size="14.00"
                  fill="#000000">Evaluator
            </text>
        </g>
        <!-- Evaluator&#45;&gt;ValidatedAST -->
        <g id="edge9" class="edge">
            <title>Evaluator-&gt;ValidatedAST</title>
            <path fill="none" stroke="#000000"
                  d="M374.016,-178.586C362.2545,-167.6703 346.1406,-153.5765 330.6033,-142.8 322.8847,-137.4465 314.2898,-132.2579 305.9212,-127.5645"/>
            <polygon fill="#000000" stroke="#000000"
                     points="307.4355,-124.4036 296.9815,-122.6817 304.08,-130.547 307.4355,-124.4036"/>
            <text text-anchor="middle" x="364.6615" y="-147" font-family="Times,serif" font-size="14.00" fill="#000000">
                visit
            </text>
        </g>
        <!-- EvaluatedResult -->
        <g id="node11" class="node">
            <title>EvaluatedResult</title>
            <ellipse fill="none" stroke="#000000" cx="407.6033" cy="-18" rx="74.1547" ry="18"/>
            <text text-anchor="middle" x="407.6033" y="-13.8" font-family="Times,serif" font-size="14.00"
                  fill="#000000">EvaluatedResult
            </text>
        </g>
        <!-- Evaluator&#45;&gt;EvaluatedResult -->
        <g id="edge10" class="edge">
            <title>Evaluator-&gt;EvaluatedResult</title>
            <path fill="none" stroke="#000000"
                  d="M392.9579,-177.4484C394.5726,-156.1903 397.4149,-119.9205 400.2877,-88.8 401.5832,-74.7648 403.1766,-59.1813 404.5452,-46.2155"/>
            <polygon fill="#000000" stroke="#000000"
                     points="408.051,-46.3459 405.6305,-36.0313 401.0904,-45.6041 408.051,-46.3459"/>
            <text text-anchor="middle" x="429.7611" y="-102.6" font-family="Times,serif" font-size="14.00"
                  fill="#000000">evaluation
            </text>
        </g>
        <!-- DynamicChecker -->
        <g id="node12" class="node">
            <title>DynamicChecker</title>
            <ellipse fill="none" stroke="#000000" cx="546.6033" cy="-106.8" rx="78.7124" ry="18"/>
            <text text-anchor="middle" x="546.6033" y="-102.6" font-family="Times,serif" font-size="14.00"
                  fill="#000000">DynamicChecker
            </text>
        </g>
        <!-- Evaluator&#45;&gt;DynamicChecker -->
        <g id="edge11" class="edge">
            <title>Evaluator-&gt;DynamicChecker</title>
            <path fill="none" stroke="#000000"
                  d="M418.2487,-180.3347C443.1637,-166.0608 480.6334,-144.5943 508.6663,-128.5342"/>
            <polygon fill="#000000" stroke="#000000"
                     points="510.4714,-131.5338 517.4084,-123.5258 506.9916,-125.46 510.4714,-131.5338"/>
        </g>
        <!-- DynamicChecker&#45;&gt;EvaluatedResult -->
        <g id="edge12" class="edge">
            <title>DynamicChecker-&gt;EvaluatedResult</title>
            <path fill="none" stroke="#000000"
                  d="M519.8027,-89.6785C497.881,-75.6739 466.7059,-55.7577 442.7785,-40.4716"/>
            <polygon fill="#000000" stroke="#000000"
                     points="444.633,-37.5032 434.3216,-35.069 440.8644,-43.4022 444.633,-37.5032"/>
            <text text-anchor="middle" x="530.7804" y="-58.2" font-family="Times,serif" font-size="14.00"
                  fill="#000000">dynamic check
            </text>
        </g>
    </g>
</svg>